<svg xmlns="http://www.w3.org/2000/svg" xmlns:xlink="http://www.w3.org/1999/xlink" width="400" height="400" viewBox="0 0 400 400">
<rect data-name="background" width="100%" height="100%" fill="#ffffff"/><g data-name="watermark" class="watermark-logodesign" stroke="#ffffff" transform="translate(10, 320) scale(1.5) rotate(-45)" style="opacity:0.040000010281801224;"><path fill="#000000" d="M22.92,19.2q3.04,1.68,4.8,4.7t1.76,6.78t-1.76,6.78t-4.8,4.7t-6.68,1.68t-6.7-1.68t-4.84-4.7t-1.78-6.78t1.78-6.78t4.84-4.7t6.7-1.68t6.68,1.68z M11.14,21.74q-2.26,1.3-3.54,3.62t-1.28,5.32t1.28,5.32t3.54,3.6t5.1,1.28t5.08-1.28t3.52-3.6t1.28-5.32t-1.28-5.32t-3.54-3.62t-5.06-1.3q-2.84,0-5.1,1.3z M21.4,24.76l-1.8,2.32q-0.72-0.56-1.4-0.78t-1.48-0.22q-1.44,0-2.3,1.1t-0.86,3.46q0,2.32,0.82,3.44t2.26,1.12q0.96,0,1.74-0.3t1.54-0.9l1.64,2.44q-2.24,2.04-5.2,2.04q-3.2,0-5.08-2.04t-1.88-5.8q0-2.4,0.9-4.16t2.48-2.7t3.54-0.94q2.92,0,5.08,1.92z M41.2,20.32l0,22.96l10.96,0l-0.64,4.72l-16.2,0l0-27.68l5.88,0z M71.92,29.14q2.68,2.98,2.68,8.26q0,3.36-1.22,5.9t-3.52,3.94t-5.42,1.4q-4.76,0-7.46-2.98t-2.7-8.26q0-3.36,1.22-5.9t3.52-3.94t5.46-1.4q4.76,0,7.44,2.98z M61.26,32.1q-1.06,1.7-1.06,5.3t1.06,5.3t3.18,1.7t3.18-1.7t1.06-5.3t-1.04-5.3t-3.16-1.7q-2.16,0-3.22,1.7z M97.88,27.96q-2.08,0.8-6.12,0.8q2,0.88,2.96,2.18t0.96,3.26q0,2.04-1.06,3.66t-3.04,2.54t-4.62,0.92q-1.4,0-2.48-0.28q-0.8,0.52-0.8,1.4q0,0.64,0.5,1.02t1.94,0.38l3.24,0q2.36,0,4.14,0.78t2.76,2.16t0.98,3.14q0,3.24-2.78,5.06t-8.02,1.82q-3.76,0-5.94-0.78t-3.06-2.26t-0.88-3.72l5.08,0q0,1.04,0.4,1.66t1.46,0.92t3.06,0.3q2.76,0,3.86-0.68t1.1-1.92q0-1.12-0.84-1.72t-2.48-0.6l-3.12,0q-3.16,0-4.72-1.18t-1.56-2.98q0-1.12,0.66-2.18t1.82-1.78q-1.96-1.08-2.86-2.54t-0.9-3.5q0-2.32,1.14-4.06t3.2-2.68t4.7-0.94q3.28,0.08,5.4-0.56t4.52-2z M84.14,30.98q-0.94,1.02-0.94,2.78q0,1.8,0.94,2.84t2.58,1.04q1.72,0,2.6-1t0.88-2.96q0-3.72-3.52-3.72q-1.6,0-2.54,1.02z M117.04,29.14q2.68,2.98,2.68,8.26q0,3.36-1.22,5.9t-3.52,3.94t-5.42,1.4q-4.76,0-7.46-2.98t-2.7-8.26q0-3.36,1.22-5.9t3.52-3.94t5.46-1.4q4.76,0,7.44,2.98z M106.38,32.1q-1.06,1.7-1.06,5.3t1.06,5.3t3.18,1.7t3.18-1.7t1.06-5.3t-1.04-5.3t-3.16-1.7q-2.16,0-3.22,1.7z M141.78,23.26q3.9,2.94,3.9,10.78q0,7.68-3.82,10.82t-9.78,3.14l-7.92,0l0-27.68l7.24,0q6.48,0,10.38,2.94z M130.04,24.64l0,19.04l2.4,0q3.4,0,5.26-2.1t1.86-7.54q0-3.76-0.94-5.84t-2.5-2.82t-3.8-0.74l-2.28,0z M167.84,39.12l-13.24,0q0.28,2.88,1.56,4.08t3.48,1.2q1.36,0,2.56-0.44t2.6-1.4l2.36,3.2q-3.56,2.88-8.04,2.88q-5,0-7.68-3t-2.68-8.12q0-3.24,1.14-5.82t3.32-4.06t5.18-1.48q4.52,0,7.04,2.84t2.52,7.92q0,0.4-0.12,2.2z M162.32,35.32q0-5.28-3.8-5.28q-1.76,0-2.74,1.3t-1.18,4.22l7.72,0l0-0.24z M186.8,28.72l-2.16,3.24q-2.68-1.68-5.28-1.68q-1.4,0-2.16,0.52t-0.76,1.4q0,0.64,0.34,1.08t1.28,0.84t2.82,0.96q3.36,0.92,5,2.46t1.64,4.22q0,2.12-1.22,3.68t-3.3,2.38t-4.64,0.82q-2.68,0-4.88-0.82t-3.76-2.26l2.8-3.12q2.68,2.08,5.68,2.08q1.6,0,2.54-0.62t0.94-1.7q0-0.84-0.36-1.32t-1.32-0.9t-3-0.98q-3.2-0.88-4.74-2.5t-1.54-4.02q0-1.8,1.04-3.24t2.94-2.26t4.42-0.82q4.48,0,7.68,2.56z M196.92,26.8l0,21.2l-5.68,0l0-21.2l5.68,0z M196.54,16.82q0.98,0.94,0.98,2.38t-0.98,2.38t-2.5,0.94t-2.48-0.94t-0.96-2.38t0.96-2.38t2.48-0.94t2.5,0.94z M221.48,27.96q-2.08,0.8-6.12,0.8q2,0.88,2.96,2.18t0.96,3.26q0,2.04-1.06,3.66t-3.04,2.54t-4.62,0.92q-1.4,0-2.48-0.28q-0.8,0.52-0.8,1.4q0,0.64,0.5,1.02t1.94,0.38l3.24,0q2.36,0,4.14,0.78t2.76,2.16t0.98,3.14q0,3.24-2.78,5.06t-8.02,1.82q-3.76,0-5.94-0.78t-3.06-2.26t-0.88-3.72l5.08,0q0,1.04,0.4,1.66t1.46,0.92t3.06,0.3q2.76,0,3.86-0.68t1.1-1.92q0-1.12-0.84-1.72t-2.48-0.6l-3.12,0q-3.16,0-4.72-1.18t-1.56-2.98q0-1.12,0.66-2.18t1.82-1.78q-1.96-1.08-2.86-2.54t-0.9-3.5q0-2.32,1.14-4.06t3.2-2.68t4.7-0.94q3.28,0.08,5.4-0.56t4.52-2z M207.74,30.98q-0.94,1.02-0.94,2.78q0,1.8,0.94,2.84t2.58,1.04q1.72,0,2.6-1t0.88-2.96q0-3.72-3.52-3.72q-1.6,0-2.54,1.02z M240.48,27.86q1.56,1.7,1.56,4.7l0,15.44l-5.68,0l0-14.48q0-1.72-0.58-2.42t-1.74-0.7q-1.2,0-2.18,0.74t-1.9,2.22l0,14.64l-5.68,0l0-21.2l4.92,0l0.44,2.68q1.32-1.64,2.9-2.48t3.58-0.84q2.8,0,4.36,1.7z M251.84,42.8q1,1,1,2.4t-1,2.42t-2.44,1.02q-1.4,0-2.4-1.02t-1-2.42t1-2.4t2.4-1q1.44,0,2.44,1z M271.8,48l-1.56-6.2l-8.68,0l-1.56,6.2l-6.12,0l8.52-27.68l7.16,0l8.48,27.68l-6.24,0z M262.68,37.44l6.44,0l-3.24-12.76z M286.48,20.32l0,27.68l-5.88,0l0-27.68l5.88,0z"/></g><g data-name="monogram" fill="#53aacd" data="id:196" transform="translate(140.29882243605257, 12.31622141621233) scale(4.791426939478281)"><path d="M20.92,46.56l-4.6,0l-5.52-10.28l-3.72,0.04l0,10.24l-4.04,0l0-26.56l-1.44,0l0,28l6.96,0l0-10.28l1.4,0l5.48,10.28l7.88,0l-5.52-10.32l-1.32,0.52z M11.4,21.44c5.8,0,9.08,2.6,9.08,7.36c0,4.32-2.6,6.96-7.12,7.44l-1.08,0.12l5,9.24l1.64,0l-4.36-8.12c4.8-0.84,7.36-3.76,7.36-8.68c0-1.64-0.36-3.12-1.04-4.44c-1.6-2.84-4.88-4.36-9.48-4.36l-7.08,0l0,25.56l1.44,0l0-24.12l5.64,0z M11.08,35.04c5.48,0,8.08-1.88,8.08-6.04c0-3.96-2.72-6.2-7.08-6.2l-5.04,0l0,4.2l4.6,0c2.12,0,3.2,0.6,3.2,1.8c0,1.4-1.32,2.08-4,2.08l-2.32,0l0-2.48l-1.48,0l0,3.92l3.8,0c3.56,0,5.44-1.24,5.44-3.52c0-0.72-0.16-1.28-0.52-1.72c-0.68-1-2.04-1.48-4.12-1.48l-3.12,0l0-1.36l3.56,0c3.56,0,5.64,1.72,5.64,4.76c0,3.16-2.12,4.64-6.64,4.64l-4,0l0,1.4l4,0z"/></g><g data-name="business_name" fill="#000000" data="id:272" transform="translate(65.80720720720721, 239.92182076813657) scale(1.0730393551446182)"><path d="M25,48.1640625q-5.4296875,0-9.4921875-5.625q-0.3125-0.4296875-0.80078125-1.171875t-1.77734375-2.6171875q-0.625-0.8984375-1.11328125-1.50390625t-1.1328125-0.91796875t-1.73828125-0.3125q-0.4296875,0-0.68359375,0.1171875t-0.25390625,0.546875l0,5.7421875q0,2.578125,0.3125,3.3984375q0.15625,0.3125,0.76171875,0.5859375t1.30859375,0.41015625t1.015625,0.13671875q0.15625,0,0.15625,0.546875q0,0.2734375-0.078125,0.5859375q-1.953125-0.078125-3.22265625-0.15625t-1.85546875-0.0390625l-4.765625,0.1953125q-0.1171875-0.1171875-0.1171875-0.703125q0-0.5078125,0.1171875-0.5078125q0.390625,0,0.95703125-0.1171875t1.09375-0.29296875t0.64453125-0.41015625q0.2734375-0.4296875,0.2734375-3.671875l0-14.765625q0-1.1328125-0.05859375-1.9921875t-0.21484375-1.3671875q-0.078125-0.234375-0.60546875-0.4296875t-1.1328125-0.3125t-0.95703125-0.1171875q-0.15625,0-0.15625-0.46875q0-0.5078125,0.15625-0.6640625l4.6875,0.078125q1.1328125,0.0390625,2.7734375-0.05859375t2.734375-0.09765625q2.109375,0,4.04296875,0.8203125t3.1640625,2.421875t1.23046875,3.90625q0,1.640625-1.23046875,3.4375t-3.33984375,2.7734375q-0.390625,0.15625-0.234375,0.390625q1.9140625,4.0625,4.4921875,6.875q3.75,4.1015625,6.09375,4.1015625q0.1171875,0.234375,0.1171875,0.546875q0,0.3515625-0.1171875,0.5859375q-0.390625,0.1171875-1.0546875,0.1171875z M11.40625,34.3359375l0.9765625,0q0.9375,0,1.93359375-0.625t1.6796875-1.7578125t0.68359375-2.6171875q0-5.4296875-5.46875-5.4296875q-1.796875,0-2.734375,0.2734375q-0.3515625,0.078125-0.41015625,1.26953125t-0.05859375,3.02734375l0,4.7265625q0,1.1328125,3.3984375,1.1328125z M35.1171875,48.203125q-2.1484375,0-3.9453125-1.1328125t-2.87109375-3.02734375t-1.07421875-4.23828125q0-2.734375,1.015625-4.7265625t2.7734375-3.06640625t3.9453125-1.07421875q1.796875,0,3.1640625,0.68359375t2.109375,1.73828125q0.703125,1.09375,1.03515625,2.20703125t0.33203125,2.20703125q0,0.78125-0.234375,0.95703125t-0.8984375,0.17578125l-9.84375,0q-0.3125,0-0.3125,0.1953125q0,1.640625,0.6640625,3.14453125t1.953125,2.48046875t3.1640625,0.9765625q1.640625,0,2.75390625-0.48828125t1.62109375-0.87890625l0.2734375-0.1953125q0.234375,0,0.234375,0.5078125q0,0.2734375-0.234375,0.703125q-0.78125,1.09375-2.3046875,1.97265625t-3.3203125,0.87890625z M30.625,37.265625l7.6171875,0q0.1953125,0,0.1953125-0.390625q0-0.859375-0.44921875-1.89453125t-1.34765625-1.81640625t-2.265625-0.78125q-1.25,0-2.1484375,0.83984375t-1.3671875,1.9140625t-0.46875,1.85546875q0,0.2734375,0.234375,0.2734375z M49.4140625,48.3984375q-1.2109375,0-2.1875-0.2734375t-2.3828125-0.46875q-0.15625-0.4296875-0.3125-1.171875t-0.25390625-1.5625t-0.09765625-1.328125q0.3125-0.234375,0.46875-0.234375q0.5859375,0,0.625,0.234375q0.15625,0.78125,0.78125,1.5625t1.5234375,1.30859375t1.8359375,0.52734375q1.25,0,2.05078125-0.68359375t0.80078125-1.97265625q0-1.3671875-1.0546875-2.265625q-0.8203125-0.6640625-1.38671875-0.95703125t-1.09375-0.546875t-1.30859375-0.72265625q-3.046875-1.7578125-3.046875-4.1796875q0-1.40625,0.78125-2.48046875t2.08984375-1.6796875t2.79296875-0.60546875q0.4296875,0,0.9765625,0.05859375t1.2109375,0.13671875q0.6640625,0.1171875,1.09375,0.1953125t0.703125,0.1171875q0.4296875,1.796875,0.46875,3.984375q0,0.1953125-0.5078125,0.1953125q-0.546875,0-0.5859375-0.2734375q-0.1953125-1.09375-1.11328125-2.0703125t-2.08984375-0.9765625q-2.8125,0-2.8125,2.3046875q0,0.5859375,0.13671875,1.03515625t0.64453125,0.83984375q1.2109375,0.9375,2.87109375,1.875t2.75390625,1.7578125q1.640625,1.25,1.640625,2.9296875q0,1.5234375-0.8203125,2.75390625t-2.1875,1.93359375t-3.0078125,0.703125z M70.9375,48.28125q-0.3125,0-0.3125-0.625l0-1.9921875q0-0.1953125-0.078125-0.1953125q-2.578125,2.7734375-5.1171875,2.7734375q-1.8359375,0-2.91015625-1.07421875t-1.5234375-2.734375t-0.44921875-3.45703125l0-4.921875q0-1.484375-0.546875-2.109375q-0.390625-0.46875-0.91796875-0.625t-0.9375-0.17578125t-0.41015625-0.09765625q0-0.9375,0.234375-0.9765625q2.0703125-0.3125,3.33984375-0.56640625l1.46484375-0.29296875l0.78125-0.1953125q0.15625-0.0390625,0.1953125,0.3125t0,0.5078125q-0.234375,1.875-0.234375,2.890625l0,5.2734375q0,3.0078125,0.8984375,4.43359375t2.9296875,1.42578125q0.78125,0,1.54296875-0.4296875t1.25-1.03515625t0.48828125-1.03515625l0-7.3046875q0-1.484375-0.546875-2.109375q-0.390625-0.46875-0.91796875-0.625t-0.9375-0.1953125t-0.41015625-0.078125q0-0.9375,0.234375-0.9765625q2.0703125-0.3125,3.10546875-0.5078125t1.66015625-0.3515625l0.8203125-0.1953125q0.15625-0.0390625,0.1953125,0.3125t0,0.5078125q-0.234375,1.875-0.234375,2.8125l0,7.8125q0,1.7578125,0.2734375,2.96875q0.1171875,0.390625,0.625,0.48828125t1.171875,0.17578125l0.5078125,0.0390625q0.1171875,0.0390625,0.1171875,0.4296875q0,0.1171875-0.09765625,0.37109375t-0.21484375,0.25390625q-1.171875,0.078125-2.578125,0.41015625t-2.109375,0.60546875z M78.0078125,48.0859375q-0.15625-0.15625-0.15625-0.6640625q0-0.46875,0.15625-0.46875q0.3125,0,0.859375-0.1171875t1.015625-0.3125t0.5078125-0.3515625q0.15625-0.546875,0.21484375-1.25t0.05859375-1.484375l0-7.3828125q0-1.484375-0.546875-2.109375q-0.390625-0.46875-0.91796875-0.625t-0.9375-0.17578125t-0.41015625-0.09765625q0-0.9375,0.234375-0.9765625q2.0703125-0.3125,3.26171875-0.546875t1.81640625-0.390625l0.5078125-0.1171875q0.15625-0.0390625,0.1953125,0.29296875t0,0.52734375q-0.078125,0.546875-0.1171875,0.9375t-0.0390625,0.625q0,0.15625,0.078125,0.15625q0.0390625,0,0.1171875-0.078125q0.8984375-0.9375,2.44140625-1.77734375t2.94921875-0.83984375q1.5625,0,2.59765625,0.83984375t1.42578125,1.93359375q2.96875-2.7734375,6.0546875-2.7734375q4.921875,0,4.921875,7.5l0,4.3359375q0,1.1328125,0.078125,1.9921875t0.234375,1.484375q0.078125,0.15625,0.546875,0.3515625t1.015625,0.3125t0.78125,0.1171875q0.1171875,0,0.15625,0.46875t-0.0390625,0.6640625l-4.1796875-0.1953125l-4.2578125,0.1953125q-0.15625-0.15625-0.15625-0.6640625q0-0.46875,0.15625-0.46875q0.3125,0,0.859375-0.1171875t1.015625-0.3125t0.5078125-0.3515625q0.15625-0.546875,0.21484375-1.19140625t0.05859375-1.30859375l0-4.4140625q0-6.015625-3.9453125-6.015625q-0.9375,0-1.7578125,0.41015625t-1.30859375,0.91796875t-0.48828125,0.8984375q0.1171875,0.7421875,0.15625,1.50390625t0.0390625,1.66015625l0,4.4140625q0,0.9765625,0.078125,1.73828125t0.234375,1.38671875q0.078125,0.15625,0.546875,0.3515625t1.015625,0.3125t0.78125,0.1171875q0.1171875,0,0.15625,0.46875t-0.0390625,0.6640625l-4.1796875-0.1953125l-4.2578125,0.1953125q-0.15625-0.15625-0.15625-0.6640625q0-0.46875,0.15625-0.46875q0.3125,0,0.859375-0.1171875t1.015625-0.3125t0.5078125-0.3515625q0.15625-0.546875,0.21484375-1.25t0.05859375-1.484375l0-3.984375q0-6.2109375-3.75-6.2109375q-0.78125,0-1.6015625,0.41015625t-1.38671875,1.015625t-0.56640625,1.15234375l0,6.875q0,1.1328125,0.078125,1.9921875t0.234375,1.484375q0.078125,0.15625,0.546875,0.3515625t1.015625,0.3125t0.78125,0.1171875q0.1171875,0,0.15625,0.46875t-0.0390625,0.6640625l-4.1796875-0.1953125z M117.3828125,48.203125q-2.1484375,0-3.9453125-1.1328125t-2.87109375-3.02734375t-1.07421875-4.23828125q0-2.734375,1.015625-4.7265625t2.7734375-3.06640625t3.9453125-1.07421875q1.796875,0,3.1640625,0.68359375t2.109375,1.73828125q0.703125,1.09375,1.03515625,2.20703125t0.33203125,2.20703125q0,0.78125-0.234375,0.95703125t-0.8984375,0.17578125l-9.84375,0q-0.3125,0-0.3125,0.1953125q0,1.640625,0.6640625,3.14453125t1.953125,2.48046875t3.1640625,0.9765625q1.640625,0,2.75390625-0.48828125t1.62109375-0.87890625l0.2734375-0.1953125q0.234375,0,0.234375,0.5078125q0,0.2734375-0.234375,0.703125q-0.78125,1.09375-2.3046875,1.97265625t-3.3203125,0.87890625z M112.890625,37.265625l7.6171875,0q0.1953125,0,0.1953125-0.390625q0-0.859375-0.44921875-1.89453125t-1.34765625-1.81640625t-2.265625-0.78125q-1.25,0-2.1484375,0.83984375t-1.3671875,1.9140625t-0.46875,1.85546875q0,0.2734375,0.234375,0.2734375z  M135.3515625,48.0859375q-0.1171875-0.1171875-0.1171875-0.625t0.1171875-0.5078125q0.3515625,0,0.9375-0.13671875t1.11328125-0.33203125t0.64453125-0.4296875q0.2734375-0.4296875,0.2734375-3.671875l0-14.765625q0-1.1328125-0.05859375-1.9921875t-0.21484375-1.3671875q-0.078125-0.234375-0.60546875-0.4296875t-1.1328125-0.3125t-0.95703125-0.1171875q-0.15625,0-0.15625-0.46875q0-0.5078125,0.15625-0.6640625q1.015625,0.0390625,2.16796875,0.05859375t2.48046875,0.01953125l3.28125-0.0390625l2.2265625,0q0.5078125,0,1.03515625,0.0390625t1.03515625,0.1171875q1.5625,0.2734375,2.94921875,1.03515625t2.265625,2.05078125t0.87890625,3.1640625q0,1.3671875-0.8984375,2.6171875q-0.8984375,1.2109375-1.66015625,1.6796875t-1.30859375,0.6640625q-0.3125,0.1171875-0.1953125,0.234375q0.78125,0.1171875,1.7578125,0.703125t1.875,1.50390625t1.50390625,2.08984375t0.60546875,2.4609375q0,2.2265625-1.23046875,3.8671875t-3.45703125,2.5390625t-5.234375,0.8984375l-5.3515625,0z M144.296875,33.3984375q1.25,0,2.1875-0.1171875q1.6015625-0.15625,2.67578125-1.11328125t1.07421875-2.55859375q0-2.6953125-1.34765625-4.19921875t-4.00390625-1.50390625q-1.8359375,0-2.7734375,0.2734375q-0.234375,0.0390625-0.234375,0.3515625l-0.15625,3.9453125l0,4.6484375q0,0.2734375,2.578125,0.2734375z M144.453125,46.2109375q0.9765625,0,1.93359375-0.15625t2.28515625-0.625q1.328125-0.4296875,2.1484375-1.54296875t0.8203125-2.79296875t-0.7421875-3.046875t-2.265625-2.1875t-3.9453125-0.8203125q-0.4296875,0-1.1328125,0.0390625t-1.6796875,0.1171875q-0.15625,0.4296875-0.15625,1.2890625l0,5.703125q0,2.96875,0.625,3.4765625q0.625,0.546875,2.109375,0.546875z M171.25,48.28125q-0.3125,0-0.3125-0.625l0-1.9921875q0-0.1953125-0.078125-0.1953125q-2.578125,2.7734375-5.1171875,2.7734375q-1.8359375,0-2.91015625-1.07421875t-1.5234375-2.734375t-0.44921875-3.45703125l0-4.921875q0-1.484375-0.546875-2.109375q-0.390625-0.46875-0.91796875-0.625t-0.9375-0.17578125t-0.41015625-0.09765625q0-0.9375,0.234375-0.9765625q2.0703125-0.3125,3.33984375-0.56640625l1.46484375-0.29296875l0.78125-0.1953125q0.15625-0.0390625,0.1953125,0.3125t0,0.5078125q-0.234375,1.875-0.234375,2.890625l0,5.2734375q0,3.0078125,0.8984375,4.43359375t2.9296875,1.42578125q0.78125,0,1.54296875-0.4296875t1.25-1.03515625t0.48828125-1.03515625l0-7.3046875q0-1.484375-0.546875-2.109375q-0.390625-0.46875-0.91796875-0.625t-0.9375-0.1953125t-0.41015625-0.078125q0-0.9375,0.234375-0.9765625q2.0703125-0.3125,3.10546875-0.5078125t1.66015625-0.3515625l0.8203125-0.1953125q0.15625-0.0390625,0.1953125,0.3125t0,0.5078125q-0.234375,1.875-0.234375,2.8125l0,7.8125q0,1.7578125,0.2734375,2.96875q0.1171875,0.390625,0.625,0.48828125t1.171875,0.17578125l0.5078125,0.0390625q0.1171875,0.0390625,0.1171875,0.4296875q0,0.1171875-0.09765625,0.37109375t-0.21484375,0.25390625q-1.171875,0.078125-2.578125,0.41015625t-2.109375,0.60546875z M178.515625,48.0859375q-0.15625-0.15625-0.15625-0.6640625q0-0.46875,0.15625-0.46875q0.3125,0,0.859375-0.1171875t1.015625-0.3125t0.5078125-0.3515625q0.15625-0.546875,0.21484375-1.25t0.05859375-1.484375l0-7.3828125q0-1.484375-0.546875-2.109375q-0.390625-0.5078125-0.9375-0.64453125t-0.9375-0.15625t-0.390625-0.09765625q0-0.9375,0.234375-0.9765625q2.0703125-0.3125,3.1640625-0.52734375t1.953125-0.41015625l0.46875-0.1171875q0.15625-0.0390625,0.1953125,0.3125t0,0.5078125q-0.078125,0.78125-0.13671875,1.484375t-0.05859375,1.328125l0,8.046875q0,1.1328125,0.078125,1.9921875t0.234375,1.484375q0.078125,0.15625,0.546875,0.3515625t1.015625,0.3125t0.78125,0.1171875q0.1171875,0,0.15625,0.46875t-0.0390625,0.6640625l-4.1796875-0.1953125z M182.3828125,26.7578125q-0.78125,0-1.3671875-0.5859375t-0.5859375-1.3671875q0-0.8203125,0.5859375-1.38671875t1.3671875-0.56640625q0.8203125,0,1.38671875,0.56640625t0.56640625,1.38671875q0,0.78125-0.56640625,1.3671875t-1.38671875,0.5859375z M188.8671875,48.0859375q-0.15625-0.15625-0.15625-0.6640625q0-0.46875,0.15625-0.46875q0.3125,0,0.859375-0.1171875t1.015625-0.3125t0.5078125-0.3515625q0.15625-0.546875,0.21484375-1.25t0.05859375-1.484375l0-16.9140625q0-1.328125-0.234375-2.5q-0.15625-0.625-1.9921875-0.625l-0.3515625,0q-0.234375,0-0.234375-0.4296875q0-0.625,0.234375-0.625q2.34375-0.2734375,3.4765625-0.625t1.5625-0.625l0.390625-0.234375l0.078125,0q0.15625,0,0.3125,0.21484375t0.1953125,0.41015625q-0.4296875,1.2890625-0.4296875,3.3984375l0,17.8125q0,1.1328125,0.078125,1.9921875t0.234375,1.484375q0.078125,0.15625,0.546875,0.3515625t1.015625,0.3125t0.78125,0.1171875q0.1171875,0,0.15625,0.46875t-0.0390625,0.6640625l-4.1796875-0.1953125z M211.5625,48.203125q-0.234375,0-0.234375-0.6640625l0-0.46875q0-0.1953125-0.15625-0.15625q-2.1484375,1.2109375-4.140625,1.2109375q-2.1484375,0-3.88671875-1.07421875t-2.734375-2.8515625t-0.99609375-3.88671875q0-1.875,0.72265625-3.59375t1.953125-3.06640625t2.79296875-2.109375t3.2421875-0.76171875t2.9296875,0.6640625q0.2734375,0,0.2734375-0.703125l0-4.21875q0-1.328125-0.234375-2.5q-0.15625-0.625-1.9921875-0.625l-0.3515625,0q-0.234375,0-0.234375-0.4296875q0-0.625,0.234375-0.625q2.1875-0.1953125,3.45703125-0.5859375t1.81640625-0.78125l0.15625-0.1171875l0.078125,0q0.15625,0,0.3125,0.21484375t0.1953125,0.41015625q-0.4296875,1.2890625-0.4296875,3.3984375l0,17.578125q0,1.8359375,0.234375,2.96875q0.1171875,0.390625,0.68359375,0.48828125t1.19140625,0.17578125l0.3515625,0.0390625q0.1171875,0.0390625,0.1171875,0.46875q0,0.5859375-0.234375,0.5859375q-1.2890625,0.078125-2.65625,0.41015625t-2.109375,0.52734375z M208.515625,46.2109375q1.328125,0,2.0703125-0.60546875t0.7421875-1.62109375l0-9.296875q0-0.8203125-0.87890625-1.54296875t-2.83203125-0.72265625q-1.484375,0-2.578125,0.9375t-1.6796875,2.48046875t-0.5859375,3.33984375q0,1.875,0.68359375,3.4765625t1.97265625,2.578125t3.0859375,0.9765625z M226.6796875,48.203125q-2.1484375,0-3.9453125-1.1328125t-2.87109375-3.02734375t-1.07421875-4.23828125q0-2.734375,1.015625-4.7265625t2.7734375-3.06640625t3.9453125-1.07421875q1.796875,0,3.1640625,0.68359375t2.109375,1.73828125q0.703125,1.09375,1.03515625,2.20703125t0.33203125,2.20703125q0,0.78125-0.234375,0.95703125t-0.8984375,0.17578125l-9.84375,0q-0.3125,0-0.3125,0.1953125q0,1.640625,0.6640625,3.14453125t1.953125,2.48046875t3.1640625,0.9765625q1.640625,0,2.75390625-0.48828125t1.62109375-0.87890625l0.2734375-0.1953125q0.234375,0,0.234375,0.5078125q0,0.2734375-0.234375,0.703125q-0.78125,1.09375-2.3046875,1.97265625t-3.3203125,0.87890625z M222.1875,37.265625l7.6171875,0q0.1953125,0,0.1953125-0.390625q0-0.859375-0.44921875-1.89453125t-1.34765625-1.81640625t-2.265625-0.78125q-1.25,0-2.1484375,0.83984375t-1.3671875,1.9140625t-0.46875,1.85546875q0,0.2734375,0.234375,0.2734375z M235.5859375,48.0859375q-0.15625-0.15625-0.15625-0.6640625q0-0.46875,0.15625-0.46875q0.3125,0,0.859375-0.1171875t1.015625-0.3125t0.5078125-0.3515625q0.15625-0.546875,0.21484375-1.25t0.05859375-1.484375l0-7.3828125q0-1.484375-0.546875-2.109375q-0.390625-0.46875-0.91796875-0.625t-0.9375-0.17578125t-0.41015625-0.09765625q0-0.9375,0.234375-0.9765625q4.2578125-0.6640625,4.921875-0.859375l0.6640625-0.1953125q0.15625-0.0390625,0.1953125,0.3125t0,0.5078125l-0.234375,1.953125q0.703125-1.0546875,1.93359375-1.97265625t2.44140625-0.91796875q2.265625,0,3.046875,1.1328125q0,1.3671875-0.4296875,1.9921875t-1.0546875,0.625q-0.703125,0-1.2890625-0.6640625t-1.6015625-0.6640625q-0.78125,0-1.484375,0.52734375t-1.11328125,1.328125t-0.41015625,1.66015625l0,5.859375q0,1.1328125,0.078125,1.9921875t0.234375,1.484375q0.078125,0.15625,0.546875,0.3515625t1.03515625,0.3125t0.80078125,0.1171875q0.1171875,0,0.15625,0.46875t-0.0390625,0.6640625l-4.21875-0.1953125z"/></g></svg>